<svg width="256" height="256" viewBox="0 0 256 256" fill="none" xmlns="http://www.w3.org/2000/svg">
<g clip-path="url(#clip0)">
<rect width="256" height="256" fill="#333333"/>
<circle cx="129" cy="128" r="128" fill="#333333"/>
<path d="M74.3125 105.938H143.75C147.236 105.938 150.062 108.764 150.062 112.25V181.688C150.062 185.174 147.236 188 143.75 188H74.3125C70.8262 188 68 185.174 68 181.688V112.25C68 108.764 70.8262 105.938 74.3125 105.938ZM74.3125 181.688H143.75V112.25H74.3125V181.688Z" fill="#FFA500"/>
<path d="M162.688 93.3125H93.25V99.625H86.9375V93.3125C86.9375 89.8262 89.7637 87 93.25 87H162.688C166.174 87 169 89.8262 169 93.3125V162.75C169 166.236 166.174 169.062 162.688 169.062H156.375V162.75H162.688V93.3125Z" fill="#FFA500"/>
<path d="M181.692 74.3077H112.308V80.6154H106V74.3077C106 70.8241 108.824 68 112.308 68H181.692C185.176 68 188 70.8241 188 74.3077V143.692C188 147.176 185.176 150 181.692 150H175.385V143.692H181.692V74.3077Z" fill="#FFA500"/>
<path d="M105.125 163C105.125 164.105 106.02 165 107.125 165H111.875C112.98 165 113.875 164.105 113.875 163V153.875C113.875 152.77 114.77 151.875 115.875 151.875H125C126.105 151.875 127 150.98 127 149.875V145.125C127 144.02 126.105 143.125 125 143.125H115.875C114.77 143.125 113.875 142.23 113.875 141.125V132C113.875 130.895 112.98 130 111.875 130H107.125C106.02 130 105.125 130.895 105.125 132V141.125C105.125 142.23 104.23 143.125 103.125 143.125H94C92.8954 143.125 92 144.02 92 145.125V149.875C92 150.98 92.8954 151.875 94 151.875H103.125C104.23 151.875 105.125 152.77 105.125 153.875V163Z" fill="#FFA500"/>
</g>
<defs>
<clipPath id="clip0">
<rect width="256" height="256" fill="white"/>
</clipPath>
</defs>
</svg>
